<svg data-v-fde0c5aa="" xmlns="http://www.w3.org/2000/svg" viewBox="0 0 300 300" class="iconLeftSlogan"><!----><defs data-v-fde0c5aa=""><!----></defs><rect data-v-fde0c5aa="" fill="#29C785" x="0" y="0" width="300px" height="300px" class="logo-background-square"></rect><defs data-v-fde0c5aa=""><!----></defs><g data-v-fde0c5aa="" id="7773208c-091a-429e-9a31-a4a472b8c678" fill="#FFFFFF" transform="matrix(4.636948108673096,0,0,4.636948108673096,151.79995199061668,98.5891588032606)"><path d="M2.62 4.87L2.62 4.87L2.62 4.87Q2.81 4.79 3.43 4.81L3.43 4.81L3.43 4.81Q4.05 4.83 4.31 4.93L4.31 4.93L4.66 5.04L4.66 5.04Q5.10 5.33 5.15 5.33L5.15 5.33L5.15 5.33Q5.73 5.78 5.81 6.51L5.81 6.51L5.81 6.51Q5.89 6.82 5.84 7.07L5.84 7.07L5.84 7.07Q5.84 7.15 5.78 7.43L5.78 7.43L5.64 7.76L5.47 7.99L5.47 7.99Q5.39 8.01 5.38 8.01L5.38 8.01L5.38 8.01Q4.86 8.09 4.58 8.03L4.58 8.03L4.58 8.03Q4.30 7.97 4.09 7.73L4.09 7.73L4.09 7.73Q4.05 7.64 4.05 7.57L4.05 7.57L4.05 7.57Q4.06 7.50 4.09 7.45L4.09 7.45L4.16 7.22L4.16 7.22Q4.34 6.78 4.13 6.47L4.13 6.47L4.13 6.47Q4.13 6.43 3.99 6.31L3.99 6.31L3.99 6.31Q3.85 6.20 3.77 6.15L3.77 6.15L3.77 6.15Q3.70 6.09 3.50 6.13L3.50 6.13L3.50 6.13Q3.16 6.27 2.93 6.99L2.93 6.99L2.93 6.99Q2.65 7.35 2.53 7.94L2.53 7.94L2.53 7.94Q2.37 8.99 2.37 9.13L2.37 9.13L2.35 9.44L2.35 9.56L2.35 9.56Q2.32 9.59 2.38 10.78L2.38 10.78L2.38 10.78Q2.39 10.85 2.44 10.98L2.44 10.98L2.44 10.98Q2.48 11.13 2.56 11.48L2.56 11.48L2.74 11.79L2.74 11.79Q2.81 11.83 2.93 12.04L2.93 12.04L2.93 12.04Q3.00 12.04 3.04 12.14L3.04 12.14L3.04 12.14Q3.14 12.24 3.12 12.25L3.12 12.25L3.12 12.25Q3.19 12.26 3.33 12.33L3.33 12.33L3.33 12.33Q3.71 12.53 3.99 12.25L3.99 12.25L3.99 12.25Q4.09 12.15 4.24 11.98L4.24 11.98L4.24 11.98Q4.38 11.80 4.46 11.70L4.46 11.70L4.46 11.70Q4.54 11.59 4.70 11.49L4.70 11.49L4.70 11.49Q5.17 11.14 5.50 11.52L5.50 11.52L5.50 11.52Q5.57 11.63 5.52 12.06L5.52 12.06L5.52 12.06Q5.47 12.49 5.12 12.95L5.12 12.95L5.12 12.95Q5.10 13.03 4.94 13.22L4.94 13.22L4.94 13.22Q4.79 13.41 4.62 13.52L4.62 13.52L4.62 13.52Q4.59 13.62 3.56 13.66L3.56 13.66L3.56 13.66Q3.50 13.66 3.33 13.64L3.33 13.64L3.33 13.64Q3.18 13.68 2.92 13.59L2.92 13.59L2.92 13.59Q2.66 13.51 2.63 13.51L2.63 13.51L2.45 13.47L2.45 13.47Q2.34 13.47 2.23 13.40L2.23 13.40L2.23 13.40Q2.11 13.33 1.85 13.15L1.85 13.15L1.85 13.15Q1.60 12.98 1.46 12.87L1.46 12.87L1.46 12.87Q1.04 12.53 0.85 12.10L0.85 12.10L0.85 12.10Q0.80 12.00 0.78 11.82L0.78 11.82L0.78 11.82Q0.77 11.65 0.73 11.56L0.73 11.56L0.73 11.56Q0.62 11.45 0.62 11.20L0.62 11.20L0.62 11.20Q0.63 10.95 0.59 10.58L0.59 10.58L0.59 10.58Q0.59 10.42 0.60 10.39L0.60 10.39L0.60 10.39Q0.53 10.32 0.55 10.14L0.55 10.14L0.55 10.14Q0.56 9.97 0.56 9.66L0.56 9.66L0.56 9.66Q0.60 9.58 0.59 9.16L0.59 9.16L0.59 9.16Q0.59 8.75 0.62 8.54L0.62 8.54L0.62 8.54Q0.56 8.41 0.60 8.18L0.60 8.18L0.62 7.76L0.62 7.76Q0.63 7.50 0.74 7.22L0.74 7.22L0.74 7.22Q0.76 7.10 0.80 6.92L0.80 6.92L0.80 6.92Q0.84 6.75 1.16 6.22L1.16 6.22L1.16 6.22Q1.16 6.10 1.37 5.94L1.37 5.94L1.37 5.94Q1.37 5.88 1.48 5.77L1.48 5.77L1.48 5.77Q1.60 5.66 1.74 5.49L1.74 5.49L1.74 5.49Q1.93 5.25 2.17 5.14L2.17 5.14L2.17 5.14Q2.41 5.03 2.62 4.87ZM9.39 9.31L9.39 9.31L9.39 9.31Q9.30 8.75 8.85 8.79L8.85 8.79L8.85 8.79Q8.60 8.81 8.41 9.13L8.41 9.13L8.41 9.13Q8.16 9.62 8.20 10.39L8.20 10.39L8.20 10.39Q8.23 11.17 8.31 11.51L8.31 11.51L8.31 11.51Q8.39 11.86 8.58 12.11L8.58 12.11L8.58 12.11Q8.69 12.31 8.92 12.29L8.92 12.29L8.92 12.29Q9.31 12.29 9.49 11.63L9.49 11.63L9.60 11.30L9.60 11.30Q9.67 11.23 9.63 11.16L9.63 11.16L9.63 11.16Q9.77 10.81 9.79 10.33L9.79 10.33L9.79 10.33Q9.65 10.23 9.62 10.15L9.62 10.15L9.62 10.15Q9.53 9.91 9.53 9.83L9.53 9.83L9.53 9.83Q9.44 9.76 9.42 9.56L9.42 9.56L9.42 9.56Q9.41 9.37 9.39 9.31ZM6.83 10.63L6.83 10.63L6.89 9.91L6.89 9.91Q6.99 8.95 7.48 8.26L7.48 8.26L7.48 8.26Q7.95 7.69 8.82 7.67L8.82 7.67L8.90 7.67L8.90 7.67Q9.72 7.67 10.08 8.02L10.08 8.02L10.08 8.02Q10.47 8.33 10.66 8.69L10.66 8.69L10.66 8.69Q10.85 9.06 10.91 9.23L10.91 9.23L10.91 9.23Q10.96 9.39 10.98 9.72L10.98 9.72L10.98 9.72Q11.00 10.32 10.74 10.40L10.74 10.40L10.74 10.40Q10.93 11.73 10.50 12.52L10.50 12.52L10.50 12.52Q10.36 12.84 10.09 13.22L10.09 13.22L10.09 13.22Q9.90 13.47 9.39 13.50L9.39 13.50L9.39 13.50Q8.89 13.50 8.52 13.44L8.52 13.44L8.52 13.44Q8.15 13.38 7.70 13.08L7.70 13.08L7.70 13.08Q7.25 12.78 7.07 12.10L7.07 12.10L7.07 12.10Q6.87 11.44 6.83 10.63ZM15.48 12.92L15.48 12.92L15.40 12.68L15.25 11.75L15.25 11.75Q15.18 11.48 15.18 11.27L15.18 11.27L15.23 10.65L15.23 10.65Q15.23 10.50 15.25 10.49L15.25 10.49L15.25 10.49Q15.08 10.49 14.74 10.89L14.74 10.89L14.74 10.89Q14.71 10.93 14.66 11.03L14.66 11.03L14.66 11.03Q14.07 11.97 13.96 13.29L13.96 13.29L13.96 13.29Q13.85 13.52 13.66 13.52L13.66 13.52L13.66 13.52Q13.29 13.44 13.24 13.44L13.24 13.44L13.15 13.45L12.96 13.45L12.96 13.45Q12.64 13.43 12.54 13.20L12.54 13.20L12.54 13.20Q12.49 13.13 12.49 12.84L12.49 12.84L12.49 12.64L12.45 11.87L12.45 10.72L12.45 10.72Q12.45 10.53 12.42 10.23L12.42 10.23L12.42 10.23Q12.39 9.91 12.40 9.22L12.40 9.22L12.40 9.22Q12.42 8.53 12.39 8.48L12.39 8.48L12.39 8.48Q12.36 8.43 12.36 8.34L12.36 8.34L12.36 8.34Q12.36 8.26 12.40 8.18L12.40 8.18L12.40 8.18Q12.45 8.09 12.78 7.99L12.78 7.99L12.78 7.99Q12.96 7.88 13.09 7.88L13.09 7.88L13.09 7.88Q13.29 7.92 13.59 8.05L13.59 8.05L13.59 8.05Q13.80 8.09 13.80 8.46L13.80 8.46L13.80 8.46Q13.83 9.06 13.81 9.32L13.81 9.32L13.81 9.32Q13.79 9.59 13.82 10.40L13.82 10.40L13.82 10.40Q14.85 8.41 15.67 8.01L15.67 8.01L15.67 8.01Q15.74 7.94 15.88 7.94L15.88 7.94L15.88 7.94Q16.02 7.94 16.20 8.08L16.20 8.08L16.20 8.08Q16.38 8.22 16.45 8.26L16.45 8.26L16.45 8.26Q16.52 8.30 16.61 8.40L16.61 8.40L16.61 8.40Q16.70 8.50 16.76 8.53L16.76 8.53L16.76 8.53Q16.93 8.81 16.83 9.84L16.83 9.84L16.83 9.84Q16.81 10.00 16.80 10.11L16.80 10.11L16.80 10.11Q16.79 10.23 16.79 10.63L16.79 10.63L16.79 10.63Q16.79 11.02 16.80 11.17L16.80 11.17L16.80 11.17Q16.84 11.66 16.84 11.75L16.84 11.75L16.91 12.28L16.91 12.28Q17.05 12.60 17.06 12.77L17.06 12.77L17.06 12.77Q17.07 12.95 17.30 13.33L17.30 13.33L17.30 13.33Q17.40 13.54 17.22 13.66L17.22 13.66L17.22 13.66Q16.94 13.80 16.92 13.78L16.92 13.78L16.92 13.78Q16.90 13.76 16.76 13.81L16.76 13.81L16.76 13.81Q16.62 13.86 16.25 13.83L16.25 13.83L16.25 13.83Q16.07 13.79 15.89 13.61L15.89 13.61L15.68 13.40L15.68 13.40Q15.57 13.23 15.53 13.03L15.53 13.03L15.53 13.03Q15.46 12.96 15.48 12.92ZM17.49 5.46L17.50 5.14L17.46 4.82L17.46 4.82Q17.46 4.59 17.60 4.40L17.60 4.40L17.60 4.40Q17.74 4.20 17.96 4.13L17.96 4.13L17.96 4.13Q18.33 4.02 18.63 4.02L18.63 4.02L18.63 4.02Q19.11 4.02 19.11 4.40L19.11 4.40L19.11 4.40Q19.11 4.52 19.04 4.89L19.04 4.89L18.86 6.15L18.86 6.15Q18.55 8.12 18.21 8.12L18.21 8.12L18.21 8.12Q17.96 7.60 17.92 7.28L17.92 7.28L17.92 7.28Q17.60 6.52 17.60 6.40L17.60 6.40L17.60 6.40Q17.60 6.23 17.54 6.17L17.54 6.17L17.54 6.17Q17.49 5.78 17.49 5.46L17.49 5.46ZM20.13 8.01L20.13 8.01L20.13 8.01Q20.51 7.55 21.17 7.52L21.17 7.52L21.17 7.52Q22.25 7.48 22.77 8.05L22.77 8.05L22.77 8.05Q23.30 8.62 23.33 9.18L23.33 9.18L23.33 9.18Q23.37 9.74 23.04 9.79L23.04 9.79L23.04 9.79Q22.58 9.80 22.44 9.66L22.44 9.66L22.44 9.66Q22.32 9.67 22.12 9.48L22.12 9.48L22.12 9.48Q22.04 9.44 21.90 9.16L21.90 9.16L21.74 8.81L21.74 8.81Q21.63 8.55 21.46 8.53L21.46 8.53L21.46 8.53Q21.25 8.61 21.25 8.95L21.25 8.95L21.25 8.95Q21.31 9.60 21.88 10.21L21.88 10.21L21.88 10.21Q21.88 10.21 21.90 10.24L21.90 10.24L21.90 10.24Q21.92 10.28 22.11 10.47L22.11 10.47L22.11 10.47Q23.21 11.69 23.25 12.43L23.25 12.43L23.25 12.43Q23.25 12.91 23.06 13.06L23.06 13.06L23.06 13.06Q22.46 13.78 21.49 13.80L21.49 13.80L21.49 13.80Q20.52 13.83 19.89 13.20L19.89 13.20L19.89 13.20Q19.73 13.03 19.73 12.88L19.73 12.88L19.73 12.88Q19.64 12.61 19.67 12.53L19.67 12.53L19.67 12.53Q19.63 12.14 19.67 11.94L19.67 11.94L19.67 11.94Q19.75 11.49 20.33 11.48L20.33 11.48L20.33 11.48Q20.54 11.48 20.59 11.73L20.59 11.73L20.59 11.73Q20.78 12.45 20.94 12.67L20.94 12.67L20.94 12.67Q21.10 12.89 21.46 12.88L21.46 12.88L21.46 12.88Q21.92 12.85 21.90 12.36L21.90 12.36L21.90 12.36Q21.88 11.87 21.43 11.45L21.43 11.45L21.43 11.45Q21.29 11.28 21.16 11.19L21.16 11.19L21.16 11.19Q21.03 11.10 20.99 11.06L20.99 11.06L20.99 11.06Q20.97 11.02 20.92 10.98L20.92 10.98L20.92 10.98Q20.64 10.75 20.21 10.23L20.21 10.23L20.21 10.23Q19.78 9.72 19.75 9.27L19.75 9.27L19.75 9.27Q19.70 8.47 20.13 8.01Z"></path></g><defs data-v-fde0c5aa=""><!----></defs><g data-v-fde0c5aa="" id="af6f7eaf-8371-41cd-8d91-ae617559ae40" stroke="none" fill="#245760" transform="matrix(1.0113015174865723,0,0,1.0113015174865723,39.99886997467659,99.41355959087927)"><path fill-rule="evenodd" clip-rule="evenodd" d="M81.15 51.783c-.604 2.233.995 3.315 1.83 4.615 4.447 6.934 8.947 13.84 14.532 19.946 2.996 3.279 1.381 6.591-.166 9.636-1.57 3.088-3.653 5.908-6.517 8.064-2.077 1.563-3.633 1.546-4.737-.645-3.49-6.926-7.141-13.781-9.92-21.044-1.288-3.367-2.933-6.598-3.816-10.127-.168-.672-.936-1.195-1.443-1.806-1.105.832-.732 1.927-.734 2.839-.034 8.633.038 17.264-.021 25.895-.018 2.736 1.222 5.225 1.168 7.985-.037 1.992-.417 2.942-2.615 2.901-5.218-.1-10.439-.081-15.657-.005-1.885.029-2.405-.788-2.352-2.533.167-5.488 1.222-10.825 2.218-16.208.771-4.18 1.653-8.317 2.721-12.423.708-2.723 1.446-5.438 2.374-8.918-3.972 3.834-6.559 7.814-9.095 11.75-5.273 8.184-9.797 16.77-12.692 26.133-.349 1.13-1.01 2.212-2.472 2.14-5.545-.27-11.145.796-16.618-1.223-3.984-1.466-4.458-1.994-2.484-5.765 8.139-15.549 19.194-28.745 32.53-40.085.379-.323.682-.756 1.1-.999.35-.204.814-.209.854-.743-5.052 1.062-9.531 3.119-13.791 5.56C23.699 63.392 13.761 72.049 5.672 82.8c-1.692 2.247-3.142 1.91-4.41-.48C.41 80.713.22 79.12.203 77.433c-.061-5.722.096-11.451-.19-17.159-.141-2.788.977-4.457 3.132-5.761 8.177-4.945 16.688-9.294 25.807-12.117 6.39-1.977 12.923-3.582 19.702-4.179 3.562-.313 7.113-.934 10.709-.881 9.571.136 18.912 1.614 28.059 4.533 3.633 1.158 7.266 2.249 10.815 3.66 1.518.604 1.977 1.415 1.961 2.89-.042 3.915.042 7.83-.031 11.743-.046 2.5-1.55 3.209-3.722 1.738-4.96-3.359-9.679-7.079-15.295-10.117zM14.57 33.555c-.41-11.856 11.273-21.209 22.737-18.924 7.222 1.44 12.723 5.651 14.868 13.225.131.461.508.847.684 1.3 1.207 3.109.391 4.252-2.849 4.491-5.72.421-11.27 1.742-16.815 3.191a107.431 107.431 0 0 0-14.641 4.995c-3.17 1.337-3.092-1.883-3.668-3.512-.511-1.445-.241-3.167-.316-4.766zM52.861 6.658c-1.176 2.178-.836 5.295-1.963 8.076-.509 1.257-1.198 1.021-1.778.562-1.834-1.447-3.66-2.815-5.929-3.586-1.025-.349-1.057-1.334-.179-2.088a632.215 632.215 0 0 1 6.685-5.661c.697-.581 1.729-.633 2.164-.036.469.644 1.596 1.082 1 2.733zM58.553 23.01c2.067.715 4.734.995 7.444 1.019.67.007 1.489.063 1.571 1.029.08.938.525 1.896-.67 2.629-2.389 1.467-4.657 3.129-7.048 4.594-.574.351-1.618.736-1.78-.64-.303-2.556-1.142-4.938-2.139-7.301-.509-1.208-.083-1.444 2.622-1.33zM12.071 44.405c-3.534-.112-6.828.511-10.03-.733-.91-.353-1.997-.417-1.894-1.84.074-1.037.253-1.74 1.375-2.325 2.137-1.113 4.141-2.509 6.096-3.931 1.636-1.19 2.251-.876 2.24 1.108-.013 2.602 1.196 4.873 2.213 7.721zM16.066 17.293c-1.277 2.597-3.396 4.29-4.356 6.785-.415 1.075-1.402 1.855-2.553.148-1.333-1.979-3.026-3.715-4.559-5.56-.863-1.038-1.029-2.272-.167-3.237.767-.857 1.708-1.108 3.136-.516 2.608 1.082 5.46 1.568 8.499 2.38zM31.824 9.15c-2.681 1.091-5.389.946-7.765 2.171-1.025.528-2.281.454-2.005-1.587.32-2.365.21-4.786.292-7.184.046-1.349.743-2.382 2.029-2.529 1.143-.131 2.012.308 2.685 1.7 1.227 2.543 3.034 4.802 4.764 7.429z"></path></g><defs data-v-fde0c5aa=""><!----></defs><g data-v-fde0c5aa="" id="aa9c6600-9996-4e3c-9178-2d56b4b53198" fill="#FFFFFF" transform="matrix(0.7266561388969421,0,0,0.7266561388969421,153.18154787300298,170.18341455439776)"><path d="M7.28 9.34L7.28 9.34L7.28 9.34Q7.73 9.34 7.99 9.59L7.99 9.59L7.99 9.59Q8.25 9.84 8.25 10.29L8.25 10.29L8.25 10.29Q8.25 10.40 8.23 10.52L8.23 10.52L8.23 10.52Q8.22 10.64 8.18 10.72L8.18 10.72L8.18 10.72Q7.99 10.70 7.77 10.68L7.77 10.68L7.77 10.68Q7.55 10.65 7.24 10.65L7.24 10.65L7.24 10.65Q6.61 10.65 5.98 10.77L5.98 10.77L5.98 10.77Q5.35 10.88 4.77 10.95L4.77 10.95L4.77 10.95Q4.14 12.43 3.74 13.73L3.74 13.73L3.74 13.73Q3.33 15.04 3.11 16.31L3.11 16.31L3.11 16.31Q2.63 16.20 2.27 15.90L2.27 15.90L2.27 15.90Q1.90 15.61 1.58 15.08L1.58 15.08L1.58 15.08Q1.68 14.85 1.82 14.54L1.82 14.54L1.82 14.54Q1.96 14.22 2.16 13.74L2.16 13.74L2.16 13.74Q2.35 13.26 2.63 12.56L2.63 12.56L2.63 12.56Q2.90 11.87 3.28 10.91L3.28 10.91L3.28 10.91Q2.69 10.71 2.51 10.22L2.51 10.22L2.51 10.22Q2.58 10.15 2.90 10.06L2.90 10.06L2.90 10.06Q3.22 9.97 3.68 9.86L3.68 9.86L3.68 9.86Q3.89 9.31 4.05 8.88L4.05 8.88L4.05 8.88Q4.20 8.46 4.33 8.07L4.33 8.07L4.33 8.07Q4.45 7.69 4.56 7.32L4.56 7.32L4.56 7.32Q4.66 6.94 4.75 6.52L4.75 6.52L4.68 6.52L4.68 6.52Q4.14 6.52 3.81 6.27L3.81 6.27L3.81 6.27Q3.49 6.02 3.49 5.61L3.49 5.61L3.49 5.61Q3.49 5.50 3.52 5.35L3.52 5.35L3.52 5.35Q3.56 5.19 3.61 5.08L3.61 5.08L3.61 5.08Q3.88 5.12 4.14 5.14L4.14 5.14L4.14 5.14Q4.40 5.15 4.82 5.15L4.82 5.15L4.82 5.15Q5.70 5.15 6.47 5.10L6.47 5.10L6.47 5.10Q7.24 5.05 7.86 5.00L7.86 5.00L7.86 5.00Q8.48 4.94 8.93 4.89L8.93 4.89L8.93 4.89Q9.38 4.84 9.62 4.84L9.62 4.84L9.62 4.84Q9.94 4.84 10.19 5.18L10.19 5.18L10.19 5.18Q10.44 5.52 10.58 6.13L10.58 6.13L10.58 6.13Q10.14 6.09 9.86 6.08L9.86 6.08L9.86 6.08Q9.59 6.06 9.38 6.06L9.38 6.06L9.38 6.06Q8.67 6.06 8.07 6.13L8.07 6.13L8.07 6.13Q7.48 6.19 6.94 6.27L6.94 6.27L6.94 6.27Q6.86 6.40 6.75 6.59L6.75 6.59L6.75 6.59Q6.65 6.79 6.48 7.15L6.48 7.15L6.48 7.15Q6.31 7.50 6.05 8.08L6.05 8.08L6.05 8.08Q5.80 8.65 5.40 9.53L5.40 9.53L5.40 9.53Q5.95 9.45 6.45 9.39L6.45 9.39L6.45 9.39Q6.94 9.34 7.28 9.34ZM15.50 14.90L15.50 14.90L15.50 14.90Q15.57 14.49 15.74 13.82L15.74 13.82L15.74 13.82Q15.92 13.16 16.16 12.41L16.16 12.41L16.16 12.41Q16.39 11.66 16.66 10.91L16.66 10.91L16.66 10.91Q16.93 10.15 17.18 9.55L17.18 9.55L17.18 9.55Q17.36 9.11 17.50 8.87L17.50 8.87L17.50 8.87Q17.64 8.62 17.81 8.46L17.81 8.46L17.81 8.46Q18.00 8.48 18.21 8.55L18.21 8.55L18.21 8.55Q18.42 8.62 18.62 8.72L18.62 8.72L18.62 8.72Q18.82 8.82 18.97 8.93L18.97 8.93L18.97 8.93Q19.12 9.03 19.21 9.13L19.21 9.13L19.21 9.13Q18.83 9.58 18.54 10.15L18.54 10.15L18.54 10.15Q18.26 10.72 17.96 11.62L17.96 11.62L17.96 11.62Q18.72 10.95 19.30 10.33L19.30 10.33L19.30 10.33Q19.88 9.72 20.38 8.96L20.38 8.96L20.38 8.96Q20.47 8.89 20.68 8.89L20.68 8.89L20.68 8.89Q20.87 8.89 21.06 8.95L21.06 8.95L21.06 8.95Q21.24 9.02 21.31 9.13L21.31 9.13L21.31 9.13Q21.06 9.80 21.06 10.46L21.06 10.46L21.06 10.46Q21.06 11.07 21.24 11.38L21.24 11.38L21.24 11.38Q21.22 11.47 21.05 11.70L21.05 11.70L21.05 11.70Q20.87 11.94 20.66 12.15L20.66 12.15L20.66 12.15Q20.29 11.96 19.99 11.61L19.99 11.61L19.99 11.61Q19.70 11.27 19.56 10.86L19.56 10.86L19.56 10.86Q18.90 11.33 18.44 11.77L18.44 11.77L18.44 11.77Q17.98 12.21 17.65 12.75L17.65 12.75L17.65 12.75Q17.32 13.29 17.09 13.99L17.09 13.99L17.09 13.99Q16.86 14.69 16.65 15.65L16.65 15.65L16.65 15.65Q16.52 15.64 16.34 15.56L16.34 15.56L16.34 15.56Q16.17 15.48 15.99 15.37L15.99 15.37L15.99 15.37Q15.82 15.26 15.68 15.13L15.68 15.13L15.68 15.13Q15.54 15.01 15.50 14.90ZM32.28 14.87L32.28 14.87L32.28 14.87Q32.02 14.64 31.93 14.31L31.93 14.31L31.93 14.31Q31.84 13.97 31.84 13.73L31.84 13.73L31.84 13.73Q31.84 13.44 31.91 13.23L31.91 13.23L31.91 13.23Q31.85 13.23 31.65 13.45L31.65 13.45L31.65 13.45Q31.46 13.68 31.23 13.99L31.23 13.99L31.23 13.99Q31.00 14.29 30.77 14.59L30.77 14.59L30.77 14.59Q30.55 14.88 30.44 15.02L30.44 15.02L30.44 15.02Q30.25 15.22 30.09 15.33L30.09 15.33L30.09 15.33Q29.93 15.44 29.83 15.46L29.83 15.46L29.83 15.46Q29.61 15.44 29.36 15.37L29.36 15.37L29.36 15.37Q29.12 15.29 28.90 15.15L28.90 15.15L28.90 15.15Q28.69 15.01 28.52 14.81L28.52 14.81L28.52 14.81Q28.36 14.62 28.31 14.36L28.31 14.36L28.31 14.36Q28.31 13.97 28.33 13.72L28.33 13.72L28.33 13.72Q28.35 13.47 28.42 13.17L28.42 13.17L28.42 13.17Q28.55 12.64 28.79 11.97L28.79 11.97L28.79 11.97Q29.04 11.30 29.36 10.65L29.36 10.65L29.36 10.65Q29.68 10.00 30.08 9.43L30.08 9.43L30.08 9.43Q30.48 8.86 30.93 8.54L30.93 8.54L30.93 8.54Q31.05 8.54 31.22 8.56L31.22 8.56L31.22 8.56Q31.39 8.58 31.56 8.64L31.56 8.64L31.56 8.64Q31.74 8.69 31.90 8.77L31.90 8.77L31.90 8.77Q32.06 8.85 32.17 8.97L32.17 8.97L32.17 8.97Q32.05 9.11 31.53 9.91L31.53 9.91L31.53 9.91Q31.02 10.71 30.39 12.21L30.39 12.21L30.39 12.21Q30.32 12.36 30.23 12.66L30.23 12.66L30.23 12.66Q30.13 12.95 30.03 13.27L30.03 13.27L30.03 13.27Q29.93 13.59 29.87 13.90L29.87 13.90L29.87 13.90Q29.81 14.21 29.81 14.39L29.81 14.39L29.81 14.39Q29.81 14.50 29.84 14.56L29.84 14.56L29.84 14.56Q29.88 14.62 29.90 14.64L29.90 14.64L29.90 14.64Q30.11 14.56 30.44 14.18L30.44 14.18L30.44 14.18Q30.76 13.80 31.33 13.02L31.33 13.02L31.33 13.02Q31.47 12.82 31.66 12.57L31.66 12.57L31.66 12.57Q31.85 12.32 32.05 12.03L32.05 12.03L32.05 12.03Q32.24 11.75 32.42 11.44L32.42 11.44L32.42 11.44Q32.59 11.13 32.70 10.82L32.70 10.82L32.70 10.82Q32.76 10.65 32.85 10.42L32.85 10.42L32.85 10.42Q32.94 10.19 33.07 9.94L33.07 9.94L33.07 9.94Q33.21 9.69 33.38 9.43L33.38 9.43L33.38 9.43Q33.56 9.17 33.80 8.95L33.80 8.95L33.80 8.95Q33.98 8.95 34.19 8.99L34.19 8.99L34.19 8.99Q34.40 9.03 34.59 9.09L34.59 9.09L34.59 9.09Q34.78 9.16 34.92 9.23L34.92 9.23L34.92 9.23Q35.06 9.31 35.13 9.39L35.13 9.39L35.13 9.39Q34.87 10.01 34.57 10.61L34.57 10.61L34.57 10.61Q34.26 11.21 33.99 11.79L33.99 11.79L33.99 11.79Q33.73 12.38 33.54 12.95L33.54 12.95L33.54 12.95Q33.36 13.52 33.36 14.07L33.36 14.07L33.36 14.07Q33.36 14.36 33.41 14.58L33.41 14.58L33.41 14.58Q33.46 14.80 33.52 14.95L33.52 14.95L33.52 14.95Q33.57 15.09 33.62 15.19L33.62 15.19L33.62 15.19Q33.67 15.29 33.67 15.36L33.67 15.36L33.67 15.36Q33.67 15.37 33.64 15.40L33.64 15.40L33.64 15.40Q33.63 15.41 33.61 15.41L33.61 15.41L33.61 15.41Q33.52 15.41 33.36 15.37L33.36 15.37L33.36 15.37Q33.21 15.33 33.02 15.25L33.02 15.25L33.02 15.25Q32.83 15.18 32.64 15.08L32.64 15.08L32.64 15.08Q32.45 14.98 32.28 14.87ZM42.34 14.24L42.34 14.24L42.34 14.24Q42.34 14.11 42.36 13.92L42.36 13.92L42.36 13.92Q42.38 13.73 42.43 13.42L42.43 13.42L42.43 13.42Q42.49 13.10 42.58 12.66L42.58 12.66L42.58 12.66Q42.67 12.21 42.81 11.58L42.81 11.58L42.81 11.58Q42.84 11.44 42.94 11.13L42.94 11.13L42.94 11.13Q43.04 10.82 43.20 10.48L43.20 10.48L43.20 10.48Q43.36 10.14 43.59 9.81L43.59 9.81L43.59 9.81Q43.82 9.49 44.14 9.34L44.14 9.34L44.14 9.34Q44.38 9.39 44.77 9.63L44.77 9.63L44.77 9.63Q45.16 9.86 45.44 10.26L45.44 10.26L45.44 10.26Q45.12 10.63 44.91 10.99L44.91 10.99L44.91 10.99Q44.69 11.35 44.51 11.75L44.51 11.75L44.51 11.75Q44.34 12.14 44.19 12.56L44.19 12.56L44.19 12.56Q44.04 12.98 43.86 13.44L43.86 13.44L43.86 13.44Q43.71 13.83 43.58 14.25L43.58 14.25L43.58 14.25Q43.46 14.66 43.44 14.97L43.44 14.97L43.44 14.97Q43.44 15.22 43.44 15.32L43.44 15.32L43.44 15.32Q43.43 15.43 43.36 15.43L43.36 15.43L43.36 15.43Q43.30 15.43 43.13 15.36L43.13 15.36L43.13 15.36Q42.97 15.29 42.79 15.14L42.79 15.14L42.79 15.14Q42.62 14.99 42.48 14.77L42.48 14.77L42.48 14.77Q42.34 14.55 42.34 14.24ZM45.01 8.16L45.01 8.16L45.01 8.16Q45.01 8.08 45.05 7.91L45.05 7.91L45.05 7.91Q44.98 7.84 44.93 7.70L44.93 7.70L44.93 7.70Q44.88 7.56 44.88 7.45L44.88 7.45L44.88 7.45Q44.88 7.32 44.92 7.11L44.92 7.11L44.92 7.11Q44.95 6.89 45.01 6.64L45.01 6.64L45.01 6.64Q45.07 6.38 45.15 6.11L45.15 6.11L45.15 6.11Q45.23 5.84 45.32 5.61L45.32 5.61L45.32 5.61Q45.49 5.61 45.73 5.71L45.73 5.71L45.73 5.71Q45.98 5.80 46.23 5.94L46.23 5.94L46.23 5.94Q46.48 6.09 46.69 6.27L46.69 6.27L46.69 6.27Q46.90 6.44 47.01 6.59L47.01 6.59L47.01 6.59Q46.86 6.75 46.61 7.02L46.61 7.02L46.61 7.02Q46.35 7.29 46.12 7.59L46.12 7.59L46.12 7.59Q45.88 7.90 45.68 8.16L45.68 8.16L45.68 8.16Q45.49 8.43 45.43 8.54L45.43 8.54L45.43 8.54Q45.26 8.51 45.14 8.39L45.14 8.39L45.14 8.39Q45.01 8.27 45.01 8.16ZM54.15 9.81L53.35 9.81L53.35 9.81Q53.28 9.73 53.23 9.46L53.23 9.46L53.23 9.46Q53.17 9.18 53.17 8.99L53.17 8.99L53.17 8.99Q53.54 9.02 53.87 9.04L53.87 9.04L53.87 9.04Q54.21 9.06 54.49 9.07L54.49 9.07L54.49 9.07Q54.70 8.65 54.94 8.24L54.94 8.24L54.94 8.24Q55.19 7.83 55.42 7.48L55.42 7.48L55.42 7.48Q55.65 7.14 55.85 6.90L55.85 6.90L55.85 6.90Q56.06 6.66 56.17 6.59L56.17 6.59L56.17 6.59Q56.31 6.59 56.53 6.64L56.53 6.64L56.53 6.64Q56.74 6.69 56.97 6.77L56.97 6.77L56.97 6.77Q57.19 6.85 57.37 6.93L57.37 6.93L57.37 6.93Q57.55 7.01 57.62 7.10L57.62 7.10L57.62 7.10Q57.20 7.63 56.90 8.09L56.90 8.09L56.90 8.09Q56.60 8.54 56.25 9.13L56.25 9.13L56.25 9.13Q56.53 9.13 56.82 9.11L56.82 9.11L56.82 9.11Q57.11 9.10 57.40 9.07L57.40 9.07L57.40 9.07Q57.47 9.14 57.51 9.25L57.51 9.25L57.51 9.25Q57.55 9.35 57.55 9.46L57.55 9.46L57.55 9.46Q56.87 9.72 55.89 9.74L55.89 9.74L55.89 9.74Q55.54 10.42 55.27 11.08L55.27 11.08L55.27 11.08Q54.99 11.75 54.80 12.36L54.80 12.36L54.80 12.36Q54.61 12.98 54.51 13.52L54.51 13.52L54.51 13.52Q54.40 14.07 54.40 14.50L54.40 14.50L54.40 14.50Q54.40 15.12 54.87 15.19L54.87 15.19L54.87 15.19Q55.29 15.13 55.66 14.98L55.66 14.98L55.66 14.98Q56.04 14.83 56.34 14.59L56.34 14.59L56.34 14.59Q56.42 14.71 56.43 14.80L56.43 14.80L56.43 14.80Q56.35 14.92 56.15 15.09L56.15 15.09L56.15 15.09Q55.94 15.26 55.71 15.42L55.71 15.42L55.71 15.42Q55.47 15.58 55.24 15.69L55.24 15.69L55.24 15.69Q55.02 15.81 54.91 15.82L54.91 15.82L54.91 15.82Q54.56 15.81 54.21 15.67L54.21 15.67L54.21 15.67Q53.86 15.53 53.57 15.32L53.57 15.32L53.57 15.32Q53.28 15.11 53.10 14.85L53.10 14.85L53.10 14.85Q52.92 14.59 52.92 14.34L52.92 14.34L52.92 14.34Q52.92 14 53.01 13.49L53.01 13.49L53.01 13.49Q53.10 12.98 53.27 12.38L53.27 12.38L53.27 12.38Q53.44 11.77 53.66 11.12L53.66 11.12L53.66 11.12Q53.89 10.46 54.15 9.81L54.15 9.81ZM81.70 10.53L81.70 10.53L81.70 10.53Q81.20 10.53 80.98 10.37L80.98 10.37L80.98 10.37Q80.75 10.21 80.75 9.86L80.75 9.86L80.75 9.86Q80.75 9.63 80.84 9.34L80.84 9.34L80.84 9.34Q81.10 9.38 81.35 9.39L81.35 9.39L81.35 9.39Q81.59 9.41 81.94 9.41L81.94 9.41L81.94 9.41Q82.39 9.41 82.69 9.40L82.69 9.40L82.69 9.40Q82.99 9.39 83.19 9.38L83.19 9.38L83.19 9.38Q83.40 9.37 83.52 9.36L83.52 9.36L83.52 9.36Q83.64 9.35 83.73 9.35L83.73 9.35L83.73 9.35Q84.07 9.35 84.22 9.60L84.22 9.60L84.22 9.60Q84.38 9.84 84.52 10.43L84.52 10.43L84.52 10.43Q84.11 10.39 83.85 10.37L83.85 10.37L83.85 10.37Q83.59 10.36 83.40 10.36L83.40 10.36L83.40 10.36Q83.26 10.36 83.15 10.37L83.15 10.37L83.15 10.37Q83.03 10.37 82.94 10.37L82.94 10.37L82.94 10.37Q82.45 11.16 81.81 12.06L81.81 12.06L81.81 12.06Q81.17 12.96 80.44 13.78L80.44 13.78L80.44 13.78Q79.70 14.59 78.90 15.22L78.90 15.22L78.90 15.22Q78.11 15.86 77.31 16.11L77.31 16.11L77.31 16.11Q76.76 16.06 76.31 15.85L76.31 15.85L76.31 15.85Q75.87 15.64 75.53 15.32L75.53 15.32L75.53 15.32Q75.19 15.01 75.00 14.60L75.00 14.60L75.00 14.60Q74.80 14.18 74.77 13.71L74.77 13.71L74.77 13.71Q74.79 13.05 75.05 12.40L75.05 12.40L75.05 12.40Q75.31 11.75 75.71 11.19L75.71 11.19L75.71 11.19Q76.12 10.63 76.63 10.18L76.63 10.18L76.63 10.18Q77.14 9.73 77.66 9.46L77.66 9.46L77.66 9.46Q77.14 9.24 76.92 8.93L76.92 8.93L76.92 8.93Q76.71 8.62 76.71 8.26L76.71 8.26L76.71 8.26Q76.71 7.76 77.06 7.20L77.06 7.20L77.06 7.20Q77.42 6.65 77.95 6.17L77.95 6.17L77.95 6.17Q78.48 5.70 79.09 5.36L79.09 5.36L79.09 5.36Q79.70 5.01 80.21 4.93L80.21 4.93L80.21 4.93Q80.35 4.96 80.60 5.10L80.60 5.10L80.60 5.10Q80.86 5.25 81.12 5.46L81.12 5.46L81.12 5.46Q81.37 5.67 81.57 5.89L81.57 5.89L81.57 5.89Q81.77 6.10 81.80 6.26L81.80 6.26L81.80 6.26Q81.77 6.43 81.68 6.64L81.68 6.64L81.68 6.64Q81.59 6.85 81.45 7.05L81.45 7.05L81.45 7.05Q81.31 7.25 81.16 7.43L81.16 7.43L81.16 7.43Q81.00 7.62 80.85 7.73L80.85 7.73L80.85 7.73Q80.71 7.69 80.68 7.59L80.68 7.59L80.68 7.59Q80.85 7.42 81.00 7.11L81.00 7.11L81.00 7.11Q81.16 6.79 81.16 6.51L81.16 6.51L81.16 6.51Q81.16 6.36 81.09 6.31L81.09 6.31L81.09 6.31Q81.02 6.26 80.86 6.26L80.86 6.26L80.86 6.26Q80.47 6.26 80.00 6.57L80.00 6.57L80.00 6.57Q79.52 6.87 79.11 7.34L79.11 7.34L79.11 7.34Q78.69 7.80 78.41 8.32L78.41 8.32L78.41 8.32Q78.13 8.85 78.13 9.28L78.13 9.28L78.13 9.28Q78.29 9.30 78.50 9.37L78.50 9.37L78.50 9.37Q78.72 9.45 78.93 9.56L78.93 9.56L78.93 9.56Q79.14 9.67 79.30 9.80L79.30 9.80L79.30 9.80Q79.46 9.93 79.51 10.02L79.51 10.02L79.51 10.02Q78.82 10.19 78.24 10.68L78.24 10.68L78.24 10.68Q77.66 11.17 77.24 11.80L77.24 11.80L77.24 11.80Q76.82 12.43 76.59 13.12L76.59 13.12L76.59 13.12Q76.36 13.80 76.36 14.35L76.36 14.35L76.36 14.35Q76.36 14.84 76.57 15.15L76.57 15.15L76.57 15.15Q76.78 15.47 77.22 15.47L77.22 15.47L77.22 15.47Q77.60 15.47 78.04 15.22L78.04 15.22L78.04 15.22Q78.48 14.98 78.95 14.57L78.95 14.57L78.95 14.57Q79.42 14.15 79.89 13.63L79.89 13.63L79.89 13.63Q80.36 13.10 80.80 12.55L80.80 12.55L80.80 12.55Q81.24 12.00 81.63 11.46L81.63 11.46L81.63 11.46Q82.01 10.92 82.32 10.47L82.32 10.47L82.32 10.47Q82.19 10.50 82.05 10.51L82.05 10.51L82.05 10.51Q81.90 10.53 81.70 10.53ZM102.45 14.45L102.45 14.45L102.45 14.45Q102.66 13.99 102.96 13.26L102.96 13.26L102.96 13.26Q103.25 12.53 103.57 11.68L103.57 11.68L103.57 11.68Q103.89 10.84 104.23 9.95L104.23 9.95L104.23 9.95Q104.57 9.06 104.86 8.26L104.86 8.26L104.86 8.26Q105.15 7.46 105.37 6.83L105.37 6.83L105.37 6.83Q105.59 6.20 105.69 5.87L105.69 5.87L105.69 5.87Q104.80 6.23 104.17 6.97L104.17 6.97L104.17 6.97Q103.54 7.71 103.22 8.83L103.22 8.83L103.22 8.83Q102.90 8.72 102.63 8.43L102.63 8.43L102.63 8.43Q102.37 8.15 102.28 7.71L102.28 7.71L102.28 7.71Q102.42 7.07 102.81 6.54L102.81 6.54L102.81 6.54Q103.19 6.01 103.78 5.63L103.78 5.63L103.78 5.63Q104.37 5.25 105.14 5.05L105.14 5.05L105.14 5.05Q105.91 4.84 106.79 4.84L106.79 4.84L106.79 4.84Q107.91 4.84 108.85 5.17L108.85 5.17L108.85 5.17Q109.79 5.50 110.46 6.09L110.46 6.09L110.46 6.09Q111.13 6.68 111.51 7.50L111.51 7.50L111.51 7.50Q111.89 8.33 111.89 9.34L111.89 9.34L111.89 9.34Q111.89 10.71 111.38 11.96L111.38 11.96L111.38 11.96Q110.88 13.20 110.02 14.15L110.02 14.15L110.02 14.15Q109.16 15.11 108.02 15.67L108.02 15.67L108.02 15.67Q106.89 16.24 105.64 16.24L105.64 16.24L105.64 16.24Q104.50 16.24 103.68 15.79L103.68 15.79L103.68 15.79Q102.86 15.33 102.45 14.45ZM107.39 5.54L107.39 5.54L107.39 5.54Q106.69 5.54 106.06 5.74L106.06 5.74L106.06 5.74Q106.68 5.96 107.09 6.21L107.09 6.21L107.09 6.21Q107.49 6.45 107.65 6.59L107.65 6.59L107.65 6.59Q107.53 6.75 107.32 7.14L107.32 7.14L107.32 7.14Q107.10 7.53 106.81 8.09L106.81 8.09L106.81 8.09Q106.53 8.65 106.20 9.32L106.20 9.32L106.20 9.32Q105.88 9.98 105.57 10.68L105.57 10.68L105.57 10.68Q104.78 12.46 104.42 13.48L104.42 13.48L104.42 13.48Q104.06 14.50 104.06 14.90L104.06 14.90L104.06 14.90Q104.26 14.97 104.54 14.99L104.54 14.99L104.54 14.99Q104.82 15.02 105.14 15.02L105.14 15.02L105.14 15.02Q106.27 15.02 107.29 14.50L107.29 14.50L107.29 14.50Q108.30 13.97 109.07 13.09L109.07 13.09L109.07 13.09Q109.83 12.21 110.27 11.04L110.27 11.04L110.27 11.04Q110.71 9.87 110.71 8.58L110.71 8.58L110.71 8.58Q110.71 7.14 109.82 6.34L109.82 6.34L109.82 6.34Q108.92 5.54 107.39 5.54ZM124.36 9.38L124.36 9.38L124.36 9.38Q124.31 10.25 124.05 10.87L124.05 10.87L124.05 10.87Q123.80 11.49 123.33 11.96L123.33 11.96L123.33 11.96Q122.86 12.43 122.19 12.81L122.19 12.81L122.19 12.81Q121.52 13.19 120.62 13.54L120.62 13.54L120.62 13.54Q120.62 13.62 120.62 13.71L120.62 13.71L120.62 13.71Q120.61 13.80 120.61 13.90L120.61 13.90L120.61 13.90Q120.61 14.08 120.64 14.28L120.64 14.28L120.64 14.28Q120.67 14.48 120.74 14.64L120.74 14.64L120.74 14.64Q120.81 14.81 120.93 14.92L120.93 14.92L120.93 14.92Q121.06 15.02 121.25 15.02L121.25 15.02L121.25 15.02Q121.63 15.02 122.00 14.85L122.00 14.85L122.00 14.85Q122.36 14.69 122.69 14.44L122.69 14.44L122.69 14.44Q123.02 14.20 123.30 13.91L123.30 13.91L123.30 13.91Q123.59 13.62 123.82 13.38L123.82 13.38L123.82 13.38Q123.96 13.51 124.05 13.62L124.05 13.62L124.05 13.62Q123.42 14.46 122.67 15.02L122.67 15.02L122.67 15.02Q121.93 15.57 121.25 15.72L121.25 15.72L121.25 15.72Q120.29 15.61 119.75 15.02L119.75 15.02L119.75 15.02Q119.21 14.42 119.21 13.58L119.21 13.58L119.21 13.58Q119.21 13.01 119.37 12.41L119.37 12.41L119.37 12.41Q119.53 11.82 119.82 11.26L119.82 11.26L119.82 11.26Q120.11 10.71 120.49 10.22L120.49 10.22L120.49 10.22Q120.88 9.73 121.32 9.37L121.32 9.37L121.32 9.37Q121.76 9.00 122.23 8.79L122.23 8.79L122.23 8.79Q122.70 8.58 123.16 8.58L123.16 8.58L123.16 8.58Q123.80 8.67 124.36 9.38ZM123.40 9.84L123.40 9.84L123.40 9.84Q123.02 9.90 122.61 10.15L122.61 10.15L122.61 10.15Q122.21 10.40 121.85 10.82L121.85 10.82L121.85 10.82Q121.49 11.24 121.20 11.80L121.20 11.80L121.20 11.80Q120.90 12.36 120.74 13.01L120.74 13.01L120.74 13.01Q121.86 12.45 122.60 11.63L122.60 11.63L122.60 11.63Q123.34 10.81 123.40 9.84ZM131.99 14.28L131.99 14.28L131.99 14.28Q131.99 13.66 132.29 12.55L132.29 12.55L132.29 12.55Q132.58 11.44 133.11 9.95L133.11 9.95L133.11 9.95Q133.98 7.59 134.74 6.01L134.74 6.01L134.74 6.01Q135.51 4.44 136.23 3.56L136.23 3.56L136.23 3.56Q136.40 3.58 136.65 3.70L136.65 3.70L136.65 3.70Q136.89 3.81 137.13 3.94L137.13 3.94L137.13 3.94Q137.37 4.07 137.56 4.21L137.56 4.21L137.56 4.21Q137.75 4.35 137.80 4.44L137.80 4.44L137.80 4.44Q136.71 5.73 135.88 7.21L135.88 7.21L135.88 7.21Q135.06 8.69 134.37 10.61L134.37 10.61L134.37 10.61Q133.78 12.26 133.48 13.59L133.48 13.59L133.48 13.59Q133.17 14.91 133.17 15.79L133.17 15.79L133.17 15.79Q133.17 16.03 133.17 16.09L133.17 16.09L133.17 16.09Q133.17 16.14 133.18 16.20L133.18 16.20L133.18 16.20Q132.99 16.17 132.85 16.10L132.85 16.10L132.85 16.10Q132.71 16.03 132.66 15.93L132.66 15.93L132.66 15.93Q132.64 15.86 132.51 15.73L132.51 15.73L132.51 15.73Q132.38 15.60 132.29 15.53L132.29 15.53L132.29 15.53Q132.16 15.44 132.08 15.09L132.08 15.09L132.08 15.09Q131.99 14.73 131.99 14.28ZM142.32 14.24L142.32 14.24L142.32 14.24Q142.32 14.11 142.34 13.92L142.34 13.92L142.34 13.92Q142.37 13.73 142.42 13.42L142.42 13.42L142.42 13.42Q142.48 13.10 142.57 12.66L142.57 12.66L142.57 12.66Q142.66 12.21 142.80 11.58L142.80 11.58L142.80 11.58Q142.83 11.44 142.93 11.13L142.93 11.13L142.93 11.13Q143.02 10.82 143.19 10.48L143.19 10.48L143.19 10.48Q143.35 10.14 143.58 9.81L143.58 9.81L143.58 9.81Q143.81 9.49 144.13 9.34L144.13 9.34L144.13 9.34Q144.37 9.39 144.76 9.63L144.76 9.63L144.76 9.63Q145.15 9.86 145.43 10.26L145.43 10.26L145.43 10.26Q145.11 10.63 144.89 10.99L144.89 10.99L144.89 10.99Q144.68 11.35 144.50 11.75L144.50 11.75L144.50 11.75Q144.33 12.14 144.18 12.56L144.18 12.56L144.18 12.56Q144.03 12.98 143.85 13.44L143.85 13.44L143.85 13.44Q143.70 13.83 143.57 14.25L143.57 14.25L143.57 14.25Q143.44 14.66 143.43 14.97L143.43 14.97L143.43 14.97Q143.43 15.22 143.42 15.32L143.42 15.32L143.42 15.32Q143.42 15.43 143.35 15.43L143.35 15.43L143.35 15.43Q143.29 15.43 143.12 15.36L143.12 15.36L143.12 15.36Q142.95 15.29 142.78 15.14L142.78 15.14L142.78 15.14Q142.60 14.99 142.46 14.77L142.46 14.77L142.46 14.77Q142.32 14.55 142.32 14.24ZM145.00 8.16L145.00 8.16L145.00 8.16Q145.00 8.08 145.04 7.91L145.04 7.91L145.04 7.91Q144.97 7.84 144.92 7.70L144.92 7.70L144.92 7.70Q144.87 7.56 144.87 7.45L144.87 7.45L144.87 7.45Q144.87 7.32 144.91 7.11L144.91 7.11L144.91 7.11Q144.94 6.89 145.00 6.64L145.00 6.64L145.00 6.64Q145.05 6.38 145.14 6.11L145.14 6.11L145.14 6.11Q145.22 5.84 145.31 5.61L145.31 5.61L145.31 5.61Q145.47 5.61 145.72 5.71L145.72 5.71L145.72 5.71Q145.96 5.80 146.22 5.94L146.22 5.94L146.22 5.94Q146.47 6.09 146.68 6.27L146.68 6.27L146.68 6.27Q146.89 6.44 147 6.59L147 6.59L147 6.59Q146.85 6.75 146.59 7.02L146.59 7.02L146.59 7.02Q146.34 7.29 146.10 7.59L146.10 7.59L146.10 7.59Q145.87 7.90 145.67 8.16L145.67 8.16L145.67 8.16Q145.47 8.43 145.42 8.54L145.42 8.54L145.42 8.54Q145.25 8.51 145.12 8.39L145.12 8.39L145.12 8.39Q145.00 8.27 145.00 8.16Z"></path></g></svg>