<svg data-v-423bf9ae="" xmlns="http://www.w3.org/2000/svg" viewBox="0 0 60.091740957395814 60" class="icon"><!----><!----><!----><!----><g data-v-423bf9ae="" id="54a59177-18f3-4f8e-a7ce-78f9dfe38806" transform="matrix(0.5997341871261597,0,0,0.5997341871261597,-0.0006682813982479274,0.0006204026867635548)" stroke="none" fill="white"><path fill-rule="evenodd" clip-rule="evenodd" d="M81.15 51.783c-.604 2.233.995 3.315 1.83 4.615 4.447 6.934 8.947 13.84 14.532 19.946 2.996 3.279 1.381 6.591-.166 9.636-1.57 3.088-3.653 5.908-6.517 8.064-2.077 1.563-3.633 1.546-4.737-.645-3.49-6.926-7.141-13.781-9.92-21.044-1.288-3.367-2.933-6.598-3.816-10.127-.168-.672-.936-1.195-1.443-1.806-1.105.832-.732 1.927-.734 2.839-.034 8.633.038 17.264-.021 25.895-.018 2.736 1.222 5.225 1.168 7.985-.037 1.992-.417 2.942-2.615 2.901-5.218-.1-10.439-.081-15.657-.005-1.885.029-2.405-.788-2.352-2.533.167-5.488 1.222-10.825 2.218-16.208.771-4.18 1.653-8.317 2.721-12.423.708-2.723 1.446-5.438 2.374-8.918-3.972 3.834-6.559 7.814-9.095 11.75-5.273 8.184-9.797 16.77-12.692 26.133-.349 1.13-1.01 2.212-2.472 2.14-5.545-.27-11.145.796-16.618-1.223-3.984-1.466-4.458-1.994-2.484-5.765 8.139-15.549 19.194-28.745 32.53-40.085.379-.323.682-.756 1.1-.999.35-.204.814-.209.854-.743-5.052 1.062-9.531 3.119-13.791 5.56C23.699 63.392 13.761 72.049 5.672 82.8c-1.692 2.247-3.142 1.91-4.41-.48C.41 80.713.22 79.12.203 77.433c-.061-5.722.096-11.451-.19-17.159-.141-2.788.977-4.457 3.132-5.761 8.177-4.945 16.688-9.294 25.807-12.117 6.39-1.977 12.923-3.582 19.702-4.179 3.562-.313 7.113-.934 10.709-.881 9.571.136 18.912 1.614 28.059 4.533 3.633 1.158 7.266 2.249 10.815 3.66 1.518.604 1.977 1.415 1.961 2.89-.042 3.915.042 7.83-.031 11.743-.046 2.5-1.55 3.209-3.722 1.738-4.96-3.359-9.679-7.079-15.295-10.117zM14.57 33.555c-.41-11.856 11.273-21.209 22.737-18.924 7.222 1.44 12.723 5.651 14.868 13.225.131.461.508.847.684 1.3 1.207 3.109.391 4.252-2.849 4.491-5.72.421-11.27 1.742-16.815 3.191a107.431 107.431 0 0 0-14.641 4.995c-3.17 1.337-3.092-1.883-3.668-3.512-.511-1.445-.241-3.167-.316-4.766zM52.861 6.658c-1.176 2.178-.836 5.295-1.963 8.076-.509 1.257-1.198 1.021-1.778.562-1.834-1.447-3.66-2.815-5.929-3.586-1.025-.349-1.057-1.334-.179-2.088a632.215 632.215 0 0 1 6.685-5.661c.697-.581 1.729-.633 2.164-.036.469.644 1.596 1.082 1 2.733zM58.553 23.01c2.067.715 4.734.995 7.444 1.019.67.007 1.489.063 1.571 1.029.08.938.525 1.896-.67 2.629-2.389 1.467-4.657 3.129-7.048 4.594-.574.351-1.618.736-1.78-.64-.303-2.556-1.142-4.938-2.139-7.301-.509-1.208-.083-1.444 2.622-1.33zM12.071 44.405c-3.534-.112-6.828.511-10.03-.733-.91-.353-1.997-.417-1.894-1.84.074-1.037.253-1.74 1.375-2.325 2.137-1.113 4.141-2.509 6.096-3.931 1.636-1.19 2.251-.876 2.24 1.108-.013 2.602 1.196 4.873 2.213 7.721zM16.066 17.293c-1.277 2.597-3.396 4.29-4.356 6.785-.415 1.075-1.402 1.855-2.553.148-1.333-1.979-3.026-3.715-4.559-5.56-.863-1.038-1.029-2.272-.167-3.237.767-.857 1.708-1.108 3.136-.516 2.608 1.082 5.46 1.568 8.499 2.38zM31.824 9.15c-2.681 1.091-5.389.946-7.765 2.171-1.025.528-2.281.454-2.005-1.587.32-2.365.21-4.786.292-7.184.046-1.349.743-2.382 2.029-2.529 1.143-.131 2.012.308 2.685 1.7 1.227 2.543 3.034 4.802 4.764 7.429z"></path></g><!----></svg>